<?xml version="1.0" encoding="utf-8"?>
<!-- Generator: Adobe Illustrator 19.0.1, SVG Export Plug-In . SVG Version: 6.00 Build 0)  -->
<svg version="1.1" id="Capa_1" xmlns="http://www.w3.org/2000/svg" xmlns:xlink="http://www.w3.org/1999/xlink" x="0px" y="0px"
	 viewBox="-249 451.6 59.4 59.4" style="enable-background:new -249 451.6 59.4 59.4;" xml:space="preserve">
<g>
	<path d="M-197.4,491.3l-5.6,8l-3.9-3.2c-0.4-0.4-1.1-0.3-1.4,0.1c-0.4,0.4-0.3,1.1,0.1,1.4l4.8,3.9c0.2,0.1,0.4,0.2,0.6,0.2
		c0,0,0.1,0,0.1,0c0.3,0,0.5-0.2,0.7-0.4l6.2-8.9c0.3-0.5,0.2-1.1-0.3-1.4C-196.5,490.7-197.1,490.8-197.4,491.3z"/>
	<path d="M-198.9,484.3l6.3-6.3v-14.1l-11.1-11.1h-14l0,0l-0.8,0.8L-243,478l0,0l-6,6l25.1,25.2l8.8-8.8c1.6,5.4,6.6,9.4,12.5,9.4
		c7.2,0,13-5.8,13-13C-189.6,490.9-193.5,485.9-198.9,484.3z M-204.5,454.8l9.9,9.9v12.5l-6.7,6.7c-0.1,0-0.2,0-0.3,0
		c-0.1,0-0.1,0-0.2,0c-0.1,0-0.1,0-0.2,0c-0.2,0-0.4,0-0.6,0c-7.2,0-13,5.8-13,13c0,0.2,0,0.4,0,0.6c0,0.1,0,0.1,0,0.2
		c0,0.1,0,0.1,0,0.2c0,0.1,0,0.2,0,0.2l-2.3,2.3l-22.3-22.4l23.3-23.2H-204.5z M-246.2,484l4.6-4.6l22.3,22.4l-4.6,4.6L-246.2,484z
		 M-202.6,507.8c-5.5,0-10.1-4.1-10.9-9.5l0,0c0-0.2,0-0.3,0-0.4c0-0.1,0-0.2,0-0.2c0-0.3,0-0.5,0-0.8c0-6.1,4.9-11,11-11
		c0.3,0,0.6,0,0.8,0c0,0,0.1,0,0.1,0c0.2,0,0.4,0,0.6,0.1l0,0c5.3,0.8,9.4,5.3,9.4,10.9C-191.6,502.9-196.5,507.8-202.6,507.8z"/>
	<path d="M-206.6,469.7c2.2,0,3.9-1.8,3.9-3.9c0-2.2-1.8-3.9-3.9-3.9c-2.2,0-3.9,1.8-3.9,3.9C-210.5,467.9-208.7,469.7-206.6,469.7z
		 M-206.6,463.8c1.1,0,1.9,0.9,1.9,1.9c0,1.1-0.9,1.9-1.9,1.9c-1.1,0-1.9-0.9-1.9-1.9C-208.5,464.7-207.6,463.8-206.6,463.8z"/>
</g>
</svg>
